<svg xmlns="http://www.w3.org/2000/svg" version="1.1" xmlns:xlink="http://www.w3.org/1999/xlink" xmlns:svgjs="http://svgjs.dev/svgjs" width="128" height="128" viewBox="0 0 128 128"><g transform="matrix(0.8046875,0,0,0.8046875,12.760752631578946,24.05004343887841)"><svg viewBox="0 0 95 74" data-background-color="#ffffff" preserveAspectRatio="xMidYMid meet" height="99" width="128" xmlns="http://www.w3.org/2000/svg" xmlns:xlink="http://www.w3.org/1999/xlink"><g id="tight-bounds" transform="matrix(1,0,0,1,-0.24049999999999727,0.10954089898437758)"><svg viewBox="0 0 95.48099999999998 73.78091820203124" height="73.78091820203124" width="95.48099999999998"><g><svg viewBox="0 0 95.48099999999998 73.78091820203124" height="73.78091820203124" width="95.48099999999998"><g><svg viewBox="0 0 95.48099999999998 73.78091820203124" height="73.78091820203124" width="95.48099999999998"><g id="textblocktransform"><svg viewBox="0 0 95.48099999999998 73.78091820203124" height="73.78091820203124" width="95.48099999999998" id="textblock"><g><svg viewBox="0 0 95.48099999999998 73.78091820203124" height="73.78091820203124" width="95.48099999999998"><g><svg viewBox="0 0 95.48099999999998 73.78091820203124" height="73.78091820203124" width="95.48099999999998"><g><svg xmlns="http://www.w3.org/2000/svg" xmlns:xlink="http://www.w3.org/1999/xlink" version="1.1" x="0" y="0" viewBox="5.443 15.316 89.50100000000002 69.16000000000001" enable-background="new 0 0 100 100" xml:space="preserve" height="73.78091820203124" width="95.48099999999998" class="icon-icon-0" data-fill-palette-color="accent" id="icon-0"><path d="M87.62 33.304v2.902c2.507 0.452 4.423 2.641 4.423 5.28l-0.006 39.309-8.999-9.002H38.143c-2.625 0-4.809-1.893-5.276-4.38h-2.902c0.498 4.091 3.953 7.282 8.178 7.282h43.694l8.403 8.403c0.941 0.941 1.752 1.378 2.557 1.378 1.34 0 2.094-1.168 2.147-2.387V41.486C94.944 37.247 91.731 33.782 87.62 33.304z" fill="#f36527" data-fill-palette-color="accent"></path><path d="M76.014 64.512c4.809 0 8.704-3.899 8.704-8.705V24.021c0-4.807-3.896-8.705-8.704-8.705H14.148c-4.807 0-8.705 3.897-8.705 8.705v25.136 6.65 19.982c0 0 0.121 2.697 2.841-0.023l11.256-11.254H76.014z" fill="#f36527" data-fill-palette-color="accent"></path></svg></g></svg></g></svg></g></svg></g></svg></g><g></g></svg></g><defs></defs></svg><rect width="95.48099999999998" height="73.78091820203124" fill="none" stroke="none" visibility="hidden"></rect></g></svg></g></svg>